{
  "source": "C:\\Users\\Peter\\Desktop\\stuff\\MIUN\\quantitative_research\\video_compression\\videos\\BVI-HD\\BVI-HD_CDVL_videos\\ORIG\\Hamster_1920x1080_60fps.mp4",
  "output": "C:\\Users\\Peter\\Desktop\\stuff\\MIUN\\quantitative_research\\video_compression\\compressed_videos\\BVI-HD\\av1\\3\\Hamster_1920x1080_60fps_av1.mkv",
  "codec": "av1",
  "ok": "Input #0, mov,mp4,m4a,3gp,3g2,mj2, from 'C:\\Users\\Peter\\Desktop\\stuff\\MIUN\\quantitative_research\\video_compression\\videos\\BVI-HD\\BVI-HD_CDVL_videos\\ORIG\\Hamster_1920x1080_60fps.mp4':\n  Metadata:\n    major_brand     : isom\n    minor_version   : 512\n    compatible_brands: isomiso2avc1mp41\n    encoder         : Lavf54.28.101\n  Duration: 00:00:05.00, start: 0.000000, bitrate: 208485 kb/s\n  Stream #0:0[0x1](und): Video: h264 (High 4:4:4 Predictive) (avc1 / 0x31637661), yuv420p(progressive), 1920x1080, 208481 kb/s, 60 fps, 60 tbr, 60 tbn (default)\n    Metadata:\n      handler_name    : VideoHandler\n      vendor_id       : [0][0][0][0]\n[out#0/matroska @ 0000024e23739100] Codec AVOption b:a (set bitrate (in bits/s)) has not been used for any stream. The most likely reason is either wrong type (e.g. a video option with no video streams) or that it is a private option of some decoder which was not actually used for any stream.\nStream mapping:\n  Stream #0:0 -> #0:0 (h264 (native) -> av1 (libsvtav1))\nPress [q] to stop, [?] for help\nSvt[info]: -------------------------------------------\nSvt[info]: SVT [version]:\tSVT-AV1 Encoder Lib v3.1.0-19-g6ecfe8ec\nSvt[info]: SVT [build]  :\tGCC 15.2.0\t 64 bit\nSvt[info]: LIB Build date: Aug 17 2025 11:37:13\nSvt[info]: -------------------------------------------\nSvt[info]: Level of Parallelism: 5\nSvt[info]: Number of PPCS 93\nSvt[info]: [asm level on system : up to avx2]\nSvt[info]: [asm level selected : up to avx2]\nSvt[info]: -------------------------------------------\nSvt[info]: SVT [config]: main profile\ttier (auto)\tlevel (auto)\nSvt[info]: SVT [config]: width / height / fps numerator / fps denominator \t\t: 1920 / 1080 / 60 / 1\nSvt[info]: SVT [config]: bit-depth / color format \t\t\t\t\t: 8 / YUV420\nSvt[info]: SVT [config]: preset / tune / pred struct \t\t\t\t\t: 4 / PSNR / random access\nSvt[info]: SVT [config]: gop size / mini-gop size / key-frame type \t\t\t: 321 / 16 / key frame\nSvt[info]: SVT [config]: BRC mode / target bitrate (kbps)\t\t\t\t: VBR / 3000 \nSvt[info]: SVT [config]: AQ mode / Variance Boost \t\t\t\t\t: 2 / 0\nSvt[info]: SVT [config]: sharpness / luminance-based QP bias \t\t\t\t: 0 / 0\nSvt[info]: SVT [config]: QP scale compress strength \t\t\t\t\t: 0\nSvt[info]: -------------------------------------------\nOutput #0, matroska, to 'C:\\Users\\Peter\\Desktop\\stuff\\MIUN\\quantitative_research\\video_compression\\compressed_videos\\BVI-HD\\av1\\3\\Hamster_1920x1080_60fps_av1.mkv':\n  Metadata:\n    major_brand     : isom\n    minor_version   : 512\n    compatible_brands: isomiso2avc1mp41\n    encoder         : Lavf62.3.100\n  Stream #0:0(und): Video: av1 (AV01 / 0x31305641), yuv420p(tv, progressive), 1920x1080, q=2-31, 3000 kb/s, 60 fps, 1k tbn (default)\n    Metadata:\n      encoder         : Lavc62.11.100 libsvtav1\n      handler_name    : VideoHandler\n      vendor_id       : [0][0][0][0]\n    Side data:\n      cpb: bitrate max/min/avg: 0/0/3000000 buffer size: 3000000 vbv_delay: N/A\nframe=    0 fps=0.0 q=0.0 size=       0KiB time=N/A bitrate=N/A speed=N/A elapsed=0:00:01.05    \nframe=    0 fps=0.0 q=0.0 size=       0KiB time=N/A bitrate=N/A speed=N/A elapsed=0:00:01.61    \nframe=    0 fps=0.0 q=0.0 size=       0KiB time=N/A bitrate=N/A speed=N/A elapsed=0:00:02.19    \nframe=    0 fps=0.0 q=0.0 size=       0KiB time=N/A bitrate=N/A speed=N/A elapsed=0:00:02.71    \nframe=    0 fps=0.0 q=0.0 size=       0KiB time=N/A bitrate=N/A speed=N/A elapsed=0:00:03.23    \nframe=    0 fps=0.0 q=0.0 size=       0KiB time=N/A bitrate=N/A speed=N/A elapsed=0:00:03.77    \nframe=    0 fps=0.0 q=0.0 size=       0KiB time=N/A bitrate=N/A speed=N/A elapsed=0:00:04.34    \nframe=    1 fps=0.2 q=9.0 size=       1KiB time=00:00:00.00 bitrate=N/A speed=   0x elapsed=0:00:04.88    \nframe=    1 fps=0.2 q=9.0 size=       1KiB time=00:00:00.00 bitrate=N/A speed=   0x elapsed=0:00:05.41    \nframe=    1 fps=0.2 q=9.0 size=       1KiB time=00:00:00.00 bitrate=N/A speed=   0x elapsed=0:00:05.95    \nframe=    4 fps=0.6 q=39.0 size=       1KiB time=00:00:00.05 bitrate= 113.9kbits/s speed=0.00771x elapsed=0:00:06.48    \nframe=    7 fps=1.0 q=34.0 size=       1KiB time=00:00:00.10 bitrate=  57.0kbits/s speed=0.0143x elapsed=0:00:07.01    \nframe=    8 fps=1.1 q=39.0 size=       1KiB time=00:00:00.11 bitrate=  48.8kbits/s speed=0.0154x elapsed=0:00:07.56    \nframe=   10 fps=1.2 q=39.0 size=       1KiB time=00:00:00.15 bitrate=  38.0kbits/s speed=0.0185x elapsed=0:00:08.12    \nframe=   14 fps=1.6 q=39.0 size=       1KiB time=00:00:00.21 bitrate=  26.3kbits/s speed=0.025x elapsed=0:00:08.64    \nframe=   17 fps=1.8 q=22.0 size=       1KiB time=00:00:00.26 bitrate=  21.4kbits/s speed=0.029x elapsed=0:00:09.19    \nframe=   20 fps=2.1 q=33.0 size=       1KiB time=00:00:00.31 bitrate=  18.0kbits/s speed=0.0326x elapsed=0:00:09.70    \nframe=   22 fps=2.1 q=33.0 size=       1KiB time=00:00:00.35 bitrate=  16.3kbits/s speed=0.0342x elapsed=0:00:10.23    \nframe=   23 fps=2.1 q=35.0 size=       1KiB time=00:00:00.36 bitrate=  15.5kbits/s speed=0.034x elapsed=0:00:10.77    \nframe=   27 fps=2.4 q=35.0 size=       1KiB time=00:00:00.43 bitrate=  13.1kbits/s speed=0.0383x elapsed=0:00:11.31    \nframe=   30 fps=2.5 q=34.0 size=       1KiB time=00:00:00.46 bitrate=  12.2kbits/s speed=0.0394x elapsed=0:00:11.84    \nframe=   34 fps=2.7 q=36.0 size=       1KiB time=00:00:00.55 bitrate=  10.4kbits/s speed=0.0443x elapsed=0:00:12.42    \nframe=   35 fps=2.7 q=36.0 size=       1KiB time=00:00:00.56 bitrate=  10.1kbits/s speed=0.0437x elapsed=0:00:12.96    \nframe=   37 fps=2.7 q=34.0 size=       1KiB time=00:00:00.60 bitrate=   9.5kbits/s speed=0.0444x elapsed=0:00:13.50    \nframe=   39 fps=2.8 q=36.0 size=       1KiB time=00:00:00.63 bitrate=   9.0kbits/s speed=0.045x elapsed=0:00:14.07    \nframe=   41 fps=2.8 q=31.0 size=       1KiB time=00:00:00.66 bitrate=   8.5kbits/s speed=0.0452x elapsed=0:00:14.75    \nframe=   43 fps=2.8 q=35.0 size=       1KiB time=00:00:00.70 bitrate=   8.1kbits/s speed=0.0455x elapsed=0:00:15.37    \nframe=   45 fps=2.8 q=32.0 size=       1KiB time=00:00:00.73 bitrate=   7.8kbits/s speed=0.0459x elapsed=0:00:15.96    \nframe=   48 fps=2.9 q=33.0 size=       1KiB time=00:00:00.78 bitrate=   7.3kbits/s speed=0.0474x elapsed=0:00:16.54    \nframe=   50 fps=2.9 q=35.0 size=       1KiB time=00:00:00.81 bitrate=   7.0kbits/s speed=0.0478x elapsed=0:00:17.09    \nframe=   52 fps=2.9 q=35.0 size=       1KiB time=00:00:00.85 bitrate=   6.7kbits/s speed=0.0482x elapsed=0:00:17.64    \nframe=   55 fps=3.0 q=37.0 size=       1KiB time=00:00:00.88 bitrate=   6.4kbits/s speed=0.0486x elapsed=0:00:18.15    \nframe=   58 fps=3.1 q=35.0 size=       1KiB time=00:00:00.95 bitrate=   6.0kbits/s speed=0.0507x elapsed=0:00:18.72    \nframe=   61 fps=3.2 q=34.0 size=       1KiB time=00:00:01.00 bitrate=   5.7kbits/s speed=0.0518x elapsed=0:00:19.29    \nframe=   65 fps=3.3 q=18.0 size=       1KiB time=00:00:01.06 bitrate=   5.3kbits/s speed=0.0537x elapsed=0:00:19.85    \nframe=   68 fps=3.3 q=32.0 size=       1KiB time=00:00:01.11 bitrate=   5.1kbits/s speed=0.0548x elapsed=0:00:20.35    \nframe=   71 fps=3.4 q=37.0 size=       1KiB time=00:00:01.16 bitrate=   4.9kbits/s speed=0.0559x elapsed=0:00:20.88    \nframe=   74 fps=3.5 q=36.0 size=       1KiB time=00:00:01.21 bitrate=   4.7kbits/s speed=0.0568x elapsed=0:00:21.42    \nframe=   77 fps=3.5 q=34.0 size=       1KiB time=00:00:01.26 bitrate=   4.5kbits/s speed=0.0577x elapsed=0:00:21.95    \nframe=   82 fps=3.6 q=38.0 size=       1KiB time=00:00:01.35 bitrate=   4.2kbits/s speed=0.0601x elapsed=0:00:22.47    \nframe=   85 fps=3.7 q=35.0 size=       1KiB time=00:00:01.40 bitrate=   4.1kbits/s speed=0.0608x elapsed=0:00:23.00    \nframe=   87 fps=3.7 q=36.0 size=       1KiB time=00:00:01.43 bitrate=   4.0kbits/s speed=0.0609x elapsed=0:00:23.52    \nframe=   91 fps=3.8 q=36.0 size=       1KiB time=00:00:01.50 bitrate=   3.8kbits/s speed=0.0624x elapsed=0:00:24.05    \nframe=   95 fps=3.9 q=35.0 size=       1KiB time=00:00:01.56 bitrate=   3.6kbits/s speed=0.0637x elapsed=0:00:24.60    \nframe=   99 fps=3.9 q=36.0 size=       1KiB time=00:00:01.63 bitrate=   3.5kbits/s speed=0.065x elapsed=0:00:25.11    \nframe=  102 fps=4.0 q=39.0 size=       1KiB time=00:00:01.68 bitrate=   3.4kbits/s speed=0.0657x elapsed=0:00:25.63    \nframe=  103 fps=3.9 q=36.0 size=       1KiB time=00:00:01.70 bitrate=   3.4kbits/s speed=0.065x elapsed=0:00:26.14    \nframe=  107 fps=4.0 q=35.0 size=       1KiB time=00:00:01.76 bitrate=   3.2kbits/s speed=0.0663x elapsed=0:00:26.66    \nframe=  111 fps=4.1 q=35.0 size=       1KiB time=00:00:01.83 bitrate=   3.1kbits/s speed=0.0674x elapsed=0:00:27.19    \nframe=  114 fps=4.1 q=38.0 size=       1KiB time=00:00:01.88 bitrate=   3.0kbits/s speed=0.0679x elapsed=0:00:27.71    \nframe=  117 fps=4.1 q=32.0 size=       1KiB time=00:00:01.93 bitrate=   2.9kbits/s speed=0.0685x elapsed=0:00:28.24    \nframe=  119 fps=4.1 q=35.0 size=       1KiB time=00:00:01.96 bitrate=   2.9kbits/s speed=0.0684x elapsed=0:00:28.75    \nframe=  122 fps=4.2 q=37.0 size=       1KiB time=00:00:02.01 bitrate=   2.8kbits/s speed=0.0689x elapsed=0:00:29.28    \nframe=  125 fps=4.2 q=32.0 size=       1KiB time=00:00:02.06 bitrate=   2.8kbits/s speed=0.0693x elapsed=0:00:29.81    \nframe=  129 fps=4.3 q=15.0 size=       1KiB time=00:00:02.13 bitrate=   2.7kbits/s speed=0.0703x elapsed=0:00:30.32    \nframe=  132 fps=4.3 q=36.0 size=       1KiB time=00:00:02.18 bitrate=   2.6kbits/s speed=0.0708x elapsed=0:00:30.85    \nframe=  135 fps=4.3 q=36.0 size=       1KiB time=00:00:02.23 bitrate=   2.6kbits/s speed=0.0712x elapsed=0:00:31.37    \nframe=  138 fps=4.3 q=36.0 size=       1KiB time=00:00:02.28 bitrate=   2.5kbits/s speed=0.0715x elapsed=0:00:31.91    \nframe=  141 fps=4.3 q=33.0 size=       1KiB time=00:00:02.33 bitrate=   2.4kbits/s speed=0.0719x elapsed=0:00:32.45    \nframe=  146 fps=4.4 q=37.0 size=       1KiB time=00:00:02.41 bitrate=   2.4kbits/s speed=0.0733x elapsed=0:00:32.97    \nframe=  149 fps=4.4 q=34.0 size=       1KiB time=00:00:02.46 bitrate=   2.3kbits/s speed=0.0736x elapsed=0:00:33.49    \nframe=  151 fps=4.4 q=36.0 size=       1KiB time=00:00:02.50 bitrate=   2.3kbits/s speed=0.0735x elapsed=0:00:34.01    \nframe=  154 fps=4.5 q=38.0 size=       1KiB time=00:00:02.55 bitrate=   2.2kbits/s speed=0.0738x elapsed=0:00:34.55    \nframe=  159 fps=4.5 q=38.0 size=       1KiB time=00:00:02.63 bitrate=   2.2kbits/s speed=0.0751x elapsed=0:00:35.06    \nframe=  163 fps=4.6 q=39.0 size=       1KiB time=00:00:02.70 bitrate=   2.1kbits/s speed=0.0759x elapsed=0:00:35.58    \nframe=  166 fps=4.6 q=41.0 size=       1KiB time=00:00:02.75 bitrate=   2.1kbits/s speed=0.0762x elapsed=0:00:36.10    \nframe=  167 fps=4.6 q=39.0 size=       1KiB time=00:00:02.76 bitrate=   2.1kbits/s speed=0.0755x elapsed=0:00:36.63    \nframe=  171 fps=4.6 q=40.0 size=       1KiB time=00:00:02.83 bitrate=   2.0kbits/s speed=0.0762x elapsed=0:00:37.17    \nframe=  176 fps=4.7 q=42.0 size=       1KiB time=00:00:02.91 bitrate=   2.0kbits/s speed=0.0773x elapsed=0:00:37.74    \nframe=  178 fps=4.7 q=43.0 size=       1KiB time=00:00:02.95 bitrate=   1.9kbits/s speed=0.0771x elapsed=0:00:38.27    \nframe=  181 fps=4.7 q=38.0 size=       1KiB time=00:00:03.00 bitrate=   1.9kbits/s speed=0.0773x elapsed=0:00:38.81    \nframe=  183 fps=4.7 q=41.0 size=       1KiB time=00:00:03.03 bitrate=   1.9kbits/s speed=0.0771x elapsed=0:00:39.34    \nframe=  185 fps=4.6 q=36.0 size=       1KiB time=00:00:03.06 bitrate=   1.9kbits/s speed=0.0769x elapsed=0:00:39.89    \nframe=  189 fps=4.7 q=38.0 size=       1KiB time=00:00:03.13 bitrate=   1.8kbits/s speed=0.0775x elapsed=0:00:40.43    \nframe=  192 fps=4.7 q=43.0 size=       1KiB time=00:00:03.18 bitrate=   1.8kbits/s speed=0.0777x elapsed=0:00:40.98    \nframe=  195 fps=4.7 q=41.0 size=       1KiB time=00:00:03.23 bitrate=   1.8kbits/s speed=0.0779x elapsed=0:00:41.50    \nframe=  197 fps=4.7 q=38.0 size=       1KiB time=00:00:03.26 bitrate=   1.7kbits/s speed=0.0777x elapsed=0:00:42.03    \nframe=  199 fps=4.7 q=41.0 size=       1KiB time=00:00:03.30 bitrate=   1.7kbits/s speed=0.0775x elapsed=0:00:42.56    \nframe=  202 fps=4.7 q=43.0 size=       1KiB time=00:00:03.35 bitrate=   1.7kbits/s speed=0.0777x elapsed=0:00:43.11    \nframe=  205 fps=4.7 q=38.0 size=       1KiB time=00:00:03.40 bitrate=   1.7kbits/s speed=0.0779x elapsed=0:00:43.63    \nframe=  209 fps=4.7 q=30.0 size=       1KiB time=00:00:03.46 bitrate=   1.6kbits/s speed=0.0784x elapsed=0:00:44.20    \nframe=  213 fps=4.8 q=37.0 size=       1KiB time=00:00:03.53 bitrate=   1.6kbits/s speed=0.0789x elapsed=0:00:44.77    \nframe=  217 fps=4.8 q=38.0 size=       1KiB time=00:00:03.56 bitrate=   1.6kbits/s speed=0.0787x elapsed=0:00:45.32    \nframe=  217 fps=4.7 q=38.0 size=       1KiB time=00:00:03.60 bitrate=   1.6kbits/s speed=0.0785x elapsed=0:00:45.87    \nframe=  221 fps=4.8 q=37.0 size=       1KiB time=00:00:03.66 bitrate=   1.6kbits/s speed=0.079x elapsed=0:00:46.42    \nframe=  223 fps=4.7 q=39.0 size=       1KiB time=00:00:03.70 bitrate=   1.5kbits/s speed=0.0787x elapsed=0:00:47.00    \nframe=  227 fps=4.8 q=40.0 size=       1KiB time=00:00:03.76 bitrate=   1.5kbits/s speed=0.0792x elapsed=0:00:47.55    \nframe=  229 fps=4.8 q=39.0 size=       1KiB time=00:00:03.80 bitrate=   1.5kbits/s speed=0.079x elapsed=0:00:48.13    \nframe=  233 fps=4.8 q=37.0 size=       1KiB time=00:00:03.86 bitrate=   1.5kbits/s speed=0.0794x elapsed=0:00:48.67    \nframe=  233 fps=4.7 q=37.0 size=       1KiB time=00:00:03.86 bitrate=   1.5kbits/s speed=0.0785x elapsed=0:00:49.25    \nframe=  233 fps=4.7 q=37.0 size=       1KiB time=00:00:03.86 bitrate=   1.5kbits/s speed=0.0776x elapsed=0:00:49.84    \nframe=  237 fps=4.7 q=33.0 size=       1KiB time=00:00:03.90 bitrate=   1.5kbits/s speed=0.0774x elapsed=0:00:50.41    \nframe=  237 fps=4.6 q=33.0 size=       1KiB time=00:00:03.93 bitrate=   1.4kbits/s speed=0.0771x elapsed=0:00:51.01    \nframe=  241 fps=4.7 q=30.0 size=       1KiB time=00:00:04.00 bitrate=   1.4kbits/s speed=0.0775x elapsed=0:00:51.57    \nframe=  245 fps=4.7 q=32.0 size=       1KiB time=00:00:04.06 bitrate=   1.4kbits/s speed=0.078x elapsed=0:00:52.13    \nframe=  247 fps=4.7 q=36.0 size=       1KiB time=00:00:04.10 bitrate=   1.4kbits/s speed=0.0778x elapsed=0:00:52.66    \nframe=  249 fps=4.7 q=32.0 size=       1KiB time=00:00:04.13 bitrate=   1.4kbits/s speed=0.0777x elapsed=0:00:53.19    \nframe=  249 fps=4.6 q=32.0 size=       1KiB time=00:00:04.13 bitrate=   1.4kbits/s speed=0.0769x elapsed=0:00:53.72    \nframe=  253 fps=4.7 q=32.0 size=       1KiB time=00:00:04.20 bitrate=   1.4kbits/s speed=0.0774x elapsed=0:00:54.24    \nframe=  253 fps=4.6 q=32.0 size=       1KiB time=00:00:04.20 bitrate=   1.4kbits/s speed=0.0767x elapsed=0:00:54.77    \nframe=  257 fps=4.6 q=24.0 size=       1KiB time=00:00:04.26 bitrate=   1.3kbits/s speed=0.0772x elapsed=0:00:55.29    \nframe=  257 fps=4.6 q=24.0 size=       1KiB time=00:00:04.26 bitrate=   1.3kbits/s speed=0.0764x elapsed=0:00:55.82    \nframe=  261 fps=4.6 q=32.0 size=       1KiB time=00:00:04.33 bitrate=   1.3kbits/s speed=0.0769x elapsed=0:00:56.33    \nframe=  261 fps=4.6 q=32.0 size=       1KiB time=00:00:04.33 bitrate=   1.3kbits/s speed=0.0762x elapsed=0:00:56.87    \nframe=  265 fps=4.6 q=31.0 size=       1KiB time=00:00:04.40 bitrate=   1.3kbits/s speed=0.0766x elapsed=0:00:57.40    \nframe=  265 fps=4.6 q=31.0 size=       1KiB time=00:00:04.40 bitrate=   1.3kbits/s speed=0.076x elapsed=0:00:57.92    \nframe=  265 fps=4.5 q=31.0 size=       1KiB time=00:00:04.40 bitrate=   1.3kbits/s speed=0.0753x elapsed=0:00:58.44    \nframe=  269 fps=4.6 q=35.0 size=       1KiB time=00:00:04.43 bitrate=   1.3kbits/s speed=0.0751x elapsed=0:00:58.99    \nframe=  269 fps=4.5 q=35.0 size=       1KiB time=00:00:04.46 bitrate=   1.3kbits/s speed=0.075x elapsed=0:00:59.57    \nframe=  273 fps=4.5 q=23.0 size=       1KiB time=00:00:04.53 bitrate=   1.3kbits/s speed=0.0754x elapsed=0:01:00.11    \nframe=  277 fps=4.6 q=38.0 size=       1KiB time=00:00:04.60 bitrate=   1.2kbits/s speed=0.0759x elapsed=0:01:00.63    \nframe=  281 fps=4.6 q=35.0 size=       1KiB time=00:00:04.66 bitrate=   1.2kbits/s speed=0.0763x elapsed=0:01:01.15    \nframe=  281 fps=4.6 q=35.0 size=       1KiB time=00:00:04.66 bitrate=   1.2kbits/s speed=0.0756x elapsed=0:01:01.70    \nframe=  285 fps=4.6 q=38.0 size=       1KiB time=00:00:04.73 bitrate=   1.2kbits/s speed=0.076x elapsed=0:01:02.26    \nframe=  287 fps=4.6 q=38.0 size=       1KiB time=00:00:04.76 bitrate=   1.2kbits/s speed=0.0758x elapsed=0:01:02.84    \nframe=  295 fps=4.7 q=38.0 size=       1KiB time=00:00:04.86 bitrate=   1.2kbits/s speed=0.0768x elapsed=0:01:03.37    \n[out#0/matroska @ 0000024e23739100] video:1924KiB audio:0KiB subtitle:0KiB other streams:0KiB global headers:0KiB muxing overhead: 0.108711%\nframe=  300 fps=4.7 q=38.0 Lsize=    1926KiB time=00:00:04.98 bitrate=3166.6kbits/s speed=0.0784x elapsed=0:01:03.58    \n",
  "seconds": 64.16402673721313,
  "probe_out": {}
}